<svg xmlns="http://www.w3.org/2000/svg" viewBox="0 0 32 32">
  <rect width="32" height="32" rx="8" fill="#202938"/>
  <path d="M16 7.2a4 4 0 0 0-7.98.32 5.2 5.2 0 0 0-3.02 7.34 5.2 5.2 0 0 0 .86 8.32A5.2 5.2 0 0 0 16 22.4V7.2Z" fill="none" stroke="#f4f7fb" stroke-width="1.8" stroke-linecap="round" stroke-linejoin="round"/>
  <path d="M16 7.2a4 4 0 0 1 7.98.32 5.2 5.2 0 0 1 3.02 7.34 5.2 5.2 0 0 1-.86 8.32A5.2 5.2 0 0 1 16 22.4V7.2Z" fill="none" stroke="#f4f7fb" stroke-width="1.8" stroke-linecap="round" stroke-linejoin="round"/>
  <path d="M12 16.4c2.25-.6 3.7-2.05 4-4 0 1.95 1.45 3.4 4 4" fill="none" stroke="#52e0c4" stroke-width="1.8" stroke-linecap="round" stroke-linejoin="round"/>
  <path d="M10.3 10.4c.95.45 1.55 1.2 1.8 2.25M21.7 10.4c-.95.45-1.55 1.2-1.8 2.25M9.4 21.2c1.05-.15 1.9-.65 2.55-1.5M22.6 21.2c-1.05-.15-1.9-.65-2.55-1.5" fill="none" stroke="#f4f7fb" stroke-width="1.5" stroke-linecap="round" stroke-linejoin="round"/>
</svg>
